<svg width="28" height="23" viewBox="0 0 28 23" fill="none" xmlns="http://www.w3.org/2000/svg">
<path d="M15.5074 22.6627C15.3989 22.5559 15.3129 22.4291 15.2542 22.2895C15.1955 22.1499 15.1652 22.0003 15.1652 21.8492C15.1652 21.6981 15.1955 21.5484 15.2542 21.4088C15.3129 21.2692 15.3989 21.1424 15.5074 21.0356L24.0165 12.6498L1.16663 12.6498C0.857219 12.6498 0.560481 12.5286 0.341695 12.313C0.122911 12.0973 -5.16006e-07 11.8048 -5.02675e-07 11.4999C-4.89344e-07 11.1949 0.122911 10.9024 0.341695 10.6867C0.560482 10.4711 0.857219 10.3499 1.16663 10.3499L24.0165 10.3499L15.5074 1.96413C15.2885 1.74836 15.1655 1.45571 15.1655 1.15056C15.1655 0.845414 15.2885 0.552764 15.5074 0.336991C15.7263 0.121219 16.0232 -5.21248e-07 16.3328 -5.0999e-07C16.6424 -4.98731e-07 16.9393 0.121219 17.1582 0.336991L27.6578 10.6863C27.7663 10.7931 27.8524 10.9199 27.9111 11.0595C27.9698 11.1991 28 11.3488 28 11.4999C28 11.651 27.9698 11.8006 27.9111 11.9402C27.8524 12.0798 27.7663 12.2066 27.6578 12.3134L17.1582 22.6627C17.0498 22.7697 16.9212 22.8545 16.7795 22.9123C16.6379 22.9702 16.4861 23 16.3328 23C16.1795 23 16.0277 22.9702 15.886 22.9123C15.7444 22.8545 15.6158 22.7697 15.5074 22.6627Z" fill="#FAF9F7"/>
</svg>
