<svg width="80" height="80" viewBox="0 0 80 80" fill="none" xmlns="http://www.w3.org/2000/svg">
<path d="M36.6467 18.6452C36.852 18.8495 37.0149 19.0921 37.126 19.3592C37.2371 19.6262 37.2943 19.9125 37.2943 20.2016C37.2943 20.4907 37.2371 20.7769 37.126 21.044C37.0149 21.3111 36.852 21.5537 36.6467 21.758L20.5402 37.8004L63.7917 37.8004C64.3774 37.8004 64.9391 38.0322 65.3532 38.4447C65.7673 38.8573 66 39.4168 66 40.0003C66 40.5837 65.7673 41.1432 65.3532 41.5558C64.9391 41.9683 64.3774 42.2001 63.7917 42.2001L20.5402 42.2001L36.6467 58.2425C37.0611 58.6553 37.2938 59.2152 37.2938 59.7989C37.2938 60.3827 37.0611 60.9425 36.6467 61.3553C36.2323 61.7681 35.6703 62 35.0843 62C34.4984 62 33.9364 61.7681 33.522 61.3553L13.6477 41.5567C13.4423 41.3523 13.2795 41.1097 13.1683 40.8427C13.0572 40.5756 13 40.2893 13 40.0003C13 39.7112 13.0572 39.4249 13.1683 39.1578C13.2795 38.8908 13.4423 38.6482 13.6477 38.4439L33.522 18.6452C33.7271 18.4407 33.9706 18.2784 34.2387 18.1677C34.5068 18.057 34.7941 18 35.0843 18C35.3745 18 35.6619 18.057 35.93 18.1677C36.1981 18.2784 36.4416 18.4407 36.6467 18.6452Z" fill="#FAF9F7"/>
</svg>
