<svg width="40" height="40" viewBox="0 0 40 40" fill="none" xmlns="http://www.w3.org/2000/svg">
<path d="M34.3208 18.8842L6.85348 5.13204C6.6382 5.02423 6.39639 4.98103 6.15716 5.00765C5.91793 5.03426 5.69149 5.12956 5.50509 5.28206C5.32708 5.43145 5.19422 5.6276 5.12143 5.84845C5.04865 6.06931 5.03883 6.30612 5.09308 6.53226L8.40164 18.7467H22.5223V21.2471H8.40164L5.04314 33.424C4.99223 33.6129 4.98629 33.811 5.02579 34.0026C5.06529 34.1942 5.14913 34.3738 5.27057 34.527C5.392 34.6802 5.54765 34.8028 5.72499 34.8848C5.90234 34.9668 6.09642 35.006 6.29165 34.9993C6.4871 34.9981 6.67954 34.951 6.85348 34.8617L34.3208 21.1096C34.5253 21.0046 34.6969 20.8453 34.8167 20.6489C34.9366 20.4526 35 20.227 35 19.9969C35 19.7668 34.9366 19.5412 34.8167 19.3448C34.6969 19.1485 34.5253 18.9891 34.3208 18.8842Z" fill="#FAF9F7"/>
</svg>
