<svg width="24" height="24" viewBox="0 0 24 24" fill="none" xmlns="http://www.w3.org/2000/svg">
<circle cx="12" cy="12" r="12" fill="#ADCAE4"/>
<path d="M10.7317 16C10.6135 16.0002 10.4965 15.9776 10.3872 15.9334C10.278 15.8892 10.1787 15.8243 10.0951 15.7425L6.27535 12.0005C6.18929 11.9192 6.12062 11.822 6.07335 11.7144C6.02608 11.6068 6.00116 11.4911 6.00004 11.374C5.99892 11.2569 6.02162 11.1408 6.06681 11.0324C6.11201 10.924 6.1788 10.8255 6.26329 10.7426C6.34778 10.6597 6.44827 10.5942 6.5589 10.5498C6.66953 10.5053 6.78808 10.4829 6.90764 10.4839C7.02721 10.4848 7.14538 10.5091 7.25527 10.5552C7.36517 10.6013 7.46458 10.6685 7.5477 10.7526L10.7308 13.8702L16.4623 8.25858C16.6311 8.0931 16.8602 8.00008 17.099 8C17.3379 7.99992 17.567 8.09277 17.736 8.25814C17.9049 8.4235 17.9999 8.64783 18 8.88178C18.0001 9.11572 17.9053 9.34012 17.7364 9.5056L11.3684 15.7425C11.2848 15.8243 11.1855 15.8892 11.0763 15.9334C10.967 15.9776 10.8499 16.0002 10.7317 16Z" fill="#151515"/>
</svg>
