<svg width="16" height="16" viewBox="0 0 16 16" fill="none" xmlns="http://www.w3.org/2000/svg">
<circle cx="8" cy="8" r="7" fill="#FAF9F7"/>
<path fill-rule="evenodd" clip-rule="evenodd" d="M9.99969 5.29395L9.99786 5.29496L8.00003 7.29277L6.00222 5.29496L6.00091 5.29404H5.99981L5.99853 5.29496L5.2951 5.99838L5.29419 5.99968V6.00077L5.29511 6.00205L7.29292 7.99988L5.29511 9.99773L5.29419 9.99902V10.0001L5.29511 10.0014L5.99853 10.7048L5.99983 10.7057H6.00092L6.00221 10.7048L8.00003 8.70698L9.99788 10.7048L9.99917 10.7057H10.0003L10.0015 10.7048L10.705 10.0014L10.7059 10.0001V9.99899L10.705 9.99771L8.70713 7.99988L10.705 6.00207L10.7059 6.00076V5.99966L10.705 5.99838L10.0015 5.29495L9.99969 5.29395Z" fill="#151515"/>
</svg>
