<svg width="1920" height="256" viewBox="0 0 1920 256" fill="none" xmlns="http://www.w3.org/2000/svg">
<path d="M28.0083 37.169V124.702H169.876V148.223H28.0083V250.905H0V13.648H170.013V37.169H27.963H28.0083Z" fill="#151515"/>
<path d="M226.488 250.905V13.648H253.493V227.384H402.522V250.905H226.488Z" fill="#151515"/>
<path d="M1138.82 250.905V13.648H1165.82V227.384H1314.85V250.905H1138.82Z" fill="#151515"/>
<path d="M451.194 123.246C451.194 52.5014 505.113 0 576.092 0C647.072 0 700.99 51.7735 700.99 123.246M674.35 123.246C674.35 64.5122 633.387 24.3854 576.047 24.3854C518.707 24.3854 477.424 64.4667 477.424 123.246" fill="#151515"/>
<path d="M451.194 249.998C451.194 179.253 505.113 122.202 576.092 122.202C647.072 122.202 700.99 178.525 700.99 249.998M674.35 249.998C674.35 191.264 633.387 146.587 576.047 146.587C518.707 146.587 477.424 191.218 477.424 249.998" fill="#151515"/>
<path d="M767.499 13.6472L816.126 128.113C824.839 150.906 832.092 168.786 838.615 186.893C845.139 168.786 853.122 153.09 861.834 130.297L911.921 12.7373H912.651L962.738 130.661C971.451 153.09 979.799 168.831 985.957 186.893C992.48 168.786 1000.1 150.906 1008.45 128.113L1057.07 13.6472H1086.82L986.322 256H985.592L938.059 137.167C929.347 114.01 920.269 94.2647 912.286 71.4716C904.303 94.2647 894.861 114.01 886.513 137.167L838.98 256H838.251L737.757 13.6472H767.499Z" fill="#151515"/>
<path d="M1372.69 250.905V13.648H1400.7V250.905H1372.69Z" fill="#151515"/>
<path d="M1506.99 88.1234C1504.39 85.1662 1501.47 81.8905 1499.23 78.9333C1499.23 86.2581 1499.6 93.9922 1499.6 102.454V250.769H1471.59V9.09826H1471.95L1648.76 192.535L1648.4 170.925V13.5113H1676.41V255.182H1676.04L1506.94 88.1234H1506.99Z" fill="#151515"/>
<path d="M1738.26 251.861V13.648H1914.25V38.1699H1767.46V118.787H1914.85V143.673H1767.46V227.339H1920V251.861H1738.26Z" fill="#151515"/>
</svg>
