<svg width="181" height="26" viewBox="0 0 181 26" fill="none" xmlns="http://www.w3.org/2000/svg">
<mask id="path-1-outside-1_2324_24" maskUnits="userSpaceOnUse" x="0" y="0" width="181" height="26" fill="black">
<rect fill="white" width="181" height="26"/>
<path d="M3.61883 4.48459V12.6908H16.8837V14.8959H3.61883V24.5224H1V2.2795H16.8965V4.48459H3.61459H3.61883Z"/>
<path d="M22.177 24.5224V2.2795H24.7021V22.3173H38.6366V24.5224H22.177Z"/>
<path d="M107.482 24.5224V2.2795H110.007V22.3173H123.941V24.5224H107.482Z"/>
<path d="M43.1875 12.5544C43.1875 5.92201 48.229 1 54.8657 1C61.5024 1 66.5439 5.85377 66.5439 12.5544M64.053 12.5544C64.053 7.04801 60.2228 3.28613 54.8614 3.28613C49.5 3.28613 45.64 7.04375 45.64 12.5544"/>
<path d="M43.1875 24.4373C43.1875 17.805 48.229 12.4564 54.8657 12.4564C61.5024 12.4564 66.5439 17.7367 66.5439 24.4373M64.053 24.4373C64.053 18.931 60.2228 14.7426 54.8614 14.7426C49.5 14.7426 45.64 18.9267 45.64 24.4373"/>
<path d="M72.7626 2.27943L77.3093 13.0106C78.124 15.1475 78.8021 16.8237 79.4121 18.5212C80.022 16.8237 80.7684 15.3522 81.5831 13.2153L86.2663 2.19412H86.3346L91.0178 13.2495C91.8324 15.3522 92.613 16.8279 93.1888 18.5212C93.7987 16.8237 94.511 15.1475 95.2915 13.0106L99.8383 2.27943H102.619L93.2229 25H93.1547L88.7103 13.8594C87.8956 11.6884 87.0468 9.83731 86.3004 7.70046C85.554 9.83731 84.6711 11.6884 83.8906 13.8594L79.4462 25H79.378L69.9817 2.27943H72.7626Z"/>
<path d="M129.349 24.5224V2.2795H131.968V24.5224H129.349Z"/>
<path d="M141.906 9.26157C141.663 8.98433 141.39 8.67724 141.181 8.4C141.181 9.08669 141.215 9.81177 141.215 10.6051V24.5096H138.596V1.85296H138.63L155.163 19.0501L155.128 17.0242V2.26668H157.747V24.9233H157.713L141.902 9.26157H141.906Z"/>
<path d="M163.531 24.6119V2.2795H179.986V4.57842H166.261V12.1363H180.042V14.4694H166.261V22.313H180.524V24.6119H163.531Z"/>
</mask>
<path d="M3.61883 4.48459V12.6908H16.8837V14.8959H3.61883V24.5224H1V2.2795H16.8965V4.48459H3.61459H3.61883Z" fill="#FAF9F7"/>
<path d="M22.177 24.5224V2.2795H24.7021V22.3173H38.6366V24.5224H22.177Z" fill="#FAF9F7"/>
<path d="M107.482 24.5224V2.2795H110.007V22.3173H123.941V24.5224H107.482Z" fill="#FAF9F7"/>
<path d="M43.1875 12.5544C43.1875 5.92201 48.229 1 54.8657 1C61.5024 1 66.5439 5.85377 66.5439 12.5544M64.053 12.5544C64.053 7.04801 60.2228 3.28613 54.8614 3.28613C49.5 3.28613 45.64 7.04375 45.64 12.5544" fill="#FAF9F7"/>
<path d="M43.1875 24.4373C43.1875 17.805 48.229 12.4564 54.8657 12.4564C61.5024 12.4564 66.5439 17.7367 66.5439 24.4373M64.053 24.4373C64.053 18.931 60.2228 14.7426 54.8614 14.7426C49.5 14.7426 45.64 18.9267 45.64 24.4373" fill="#FAF9F7"/>
<path d="M72.7626 2.27943L77.3093 13.0106C78.124 15.1475 78.8021 16.8237 79.4121 18.5212C80.022 16.8237 80.7684 15.3522 81.5831 13.2153L86.2663 2.19412H86.3346L91.0178 13.2495C91.8324 15.3522 92.613 16.8279 93.1888 18.5212C93.7987 16.8237 94.511 15.1475 95.2915 13.0106L99.8383 2.27943H102.619L93.2229 25H93.1547L88.7103 13.8594C87.8956 11.6884 87.0468 9.83731 86.3004 7.70046C85.554 9.83731 84.6711 11.6884 83.8906 13.8594L79.4462 25H79.378L69.9817 2.27943H72.7626Z" fill="#FAF9F7"/>
<path d="M129.349 24.5224V2.2795H131.968V24.5224H129.349Z" fill="#FAF9F7"/>
<path d="M141.906 9.26157C141.663 8.98433 141.39 8.67724 141.181 8.4C141.181 9.08669 141.215 9.81177 141.215 10.6051V24.5096H138.596V1.85296H138.63L155.163 19.0501L155.128 17.0242V2.26668H157.747V24.9233H157.713L141.902 9.26157H141.906Z" fill="#FAF9F7"/>
<path d="M163.531 24.6119V2.2795H179.986V4.57842H166.261V12.1363H180.042V14.4694H166.261V22.313H180.524V24.6119H163.531Z" fill="#FAF9F7"/>
<path d="M3.61883 4.48459H3.91883V4.18459H3.61883V4.48459ZM3.61883 12.6908H3.31883V12.9908H3.61883V12.6908ZM16.8837 12.6908H17.1837V12.3908H16.8837V12.6908ZM16.8837 14.8959V15.1959H17.1837V14.8959H16.8837ZM3.61883 14.8959V14.5959H3.31883V14.8959H3.61883ZM3.61883 24.5224V24.8224H3.91883V24.5224H3.61883ZM1 24.5224H0.7V24.8224H1V24.5224ZM1 2.2795V1.9795H0.7V2.2795H1ZM16.8965 2.2795H17.1965V1.9795H16.8965V2.2795ZM16.8965 4.48459V4.78459H17.1965V4.48459H16.8965ZM22.177 24.5224H21.877V24.8224H22.177V24.5224ZM22.177 2.2795V1.9795H21.877V2.2795H22.177ZM24.7021 2.2795H25.0021V1.9795H24.7021V2.2795ZM24.7021 22.3173H24.4021V22.6173H24.7021V22.3173ZM38.6366 22.3173H38.9366V22.0173H38.6366V22.3173ZM38.6366 24.5224V24.8224H38.9366V24.5224H38.6366ZM107.482 24.5224H107.182V24.8224H107.482V24.5224ZM107.482 2.2795V1.9795H107.182V2.2795H107.482ZM110.007 2.2795H110.307V1.9795H110.007V2.2795ZM110.007 22.3173H109.707V22.6173H110.007V22.3173ZM123.941 22.3173H124.241V22.0173H123.941V22.3173ZM123.941 24.5224V24.8224H124.241V24.5224H123.941ZM72.7626 2.27943L73.0388 2.16239L72.9613 1.97943H72.7626V2.27943ZM77.3093 13.0106L77.5898 12.9037L77.5855 12.8936L77.3093 13.0106ZM79.4121 18.5212L79.1297 18.6226L79.4121 19.4084L79.6944 18.6226L79.4121 18.5212ZM81.5831 13.2153L81.3068 13.0979L81.3028 13.1085L81.5831 13.2153ZM86.2663 2.19412V1.89412H86.0678L85.9902 2.0768L86.2663 2.19412ZM86.3346 2.19412L86.6108 2.07711L86.5333 1.89412H86.3346V2.19412ZM91.0178 13.2495L91.2976 13.141L91.294 13.1324L91.0178 13.2495ZM93.1888 18.5212L92.9047 18.6178L93.181 19.4301L93.4711 18.6226L93.1888 18.5212ZM95.2915 13.0106L95.0153 12.8936L95.0124 12.9005L95.0098 12.9077L95.2915 13.0106ZM99.8383 2.27943V1.97943H99.6396L99.562 2.16239L99.8383 2.27943ZM102.619 2.27943L102.896 2.39408L103.068 1.97943H102.619V2.27943ZM93.2229 25V25.3H93.4235L93.5001 25.1147L93.2229 25ZM93.1547 25L92.876 25.1112L92.9513 25.3H93.1547V25ZM88.7103 13.8594L88.4293 13.9648L88.4316 13.9705L88.7103 13.8594ZM86.3004 7.70046L86.5836 7.60153L86.3004 6.79073L86.0172 7.60153L86.3004 7.70046ZM83.8906 13.8594L84.1694 13.9706L84.1729 13.9609L83.8906 13.8594ZM79.4462 25V25.3H79.6495L79.7248 25.1112L79.4462 25ZM79.378 25L79.1007 25.1147L79.1774 25.3H79.378V25ZM69.9817 2.27943V1.97943H69.5329L69.7044 2.39408L69.9817 2.27943ZM129.349 24.5224H129.049V24.8224H129.349V24.5224ZM129.349 2.2795V1.9795H129.049V2.2795H129.349ZM131.968 2.2795H132.268V1.9795H131.968V2.2795ZM131.968 24.5224V24.8224H132.268V24.5224H131.968ZM141.906 9.26157V9.56157H142.568L142.132 9.06377L141.906 9.26157ZM141.181 8.4L141.421 8.21941L140.881 7.50368V8.4H141.181ZM141.215 24.5096V24.8096H141.515V24.5096H141.215ZM138.596 24.5096H138.296V24.8096H138.596V24.5096ZM138.596 1.85296V1.55296H138.296V1.85296H138.596ZM138.63 1.85296L138.847 1.64505L138.758 1.55296H138.63V1.85296ZM155.163 19.0501L154.946 19.258L155.475 19.8084L155.462 19.0451L155.163 19.0501ZM155.128 17.0242H154.828L154.828 17.0292L155.128 17.0242ZM155.128 2.26668V1.96668H154.828V2.26668H155.128ZM157.747 2.26668H158.047V1.96668H157.747V2.26668ZM157.747 24.9233V25.2233H158.047V24.9233H157.747ZM157.713 24.9233L157.502 25.1364L157.59 25.2233H157.713V24.9233ZM141.902 9.26157V8.96157H141.173L141.691 9.4747L141.902 9.26157ZM163.531 24.6119H163.231V24.9119H163.531V24.6119ZM163.531 2.2795V1.9795H163.231V2.2795H163.531ZM179.986 2.2795H180.286V1.9795H179.986V2.2795ZM179.986 4.57842V4.87842H180.286V4.57842H179.986ZM166.261 4.57842V4.27842H165.961V4.57842H166.261ZM166.261 12.1363H165.961V12.4363H166.261V12.1363ZM180.042 12.1363H180.342V11.8363H180.042V12.1363ZM180.042 14.4694V14.7694H180.342V14.4694H180.042ZM166.261 14.4694V14.1694H165.961V14.4694H166.261ZM166.261 22.313H165.961V22.613H166.261V22.313ZM180.524 22.313H180.824V22.013H180.524V22.313ZM180.524 24.6119V24.9119H180.824V24.6119H180.524ZM3.31883 4.48459V12.6908H3.91883V4.48459H3.31883ZM3.61883 12.9908H16.8837V12.3908H3.61883V12.9908ZM16.5837 12.6908V14.8959H17.1837V12.6908H16.5837ZM16.8837 14.5959H3.61883V15.1959H16.8837V14.5959ZM3.31883 14.8959V24.5224H3.91883V14.8959H3.31883ZM3.61883 24.2224H1V24.8224H3.61883V24.2224ZM1.3 24.5224V2.2795H0.7V24.5224H1.3ZM1 2.5795H16.8965V1.9795H1V2.5795ZM16.5965 2.2795V4.48459H17.1965V2.2795H16.5965ZM16.8965 4.18459H3.61459V4.78459H16.8965V4.18459ZM3.61459 4.78459H3.61883V4.18459H3.61459V4.78459ZM22.477 24.5224V2.2795H21.877V24.5224H22.477ZM22.177 2.5795H24.7021V1.9795H22.177V2.5795ZM24.4021 2.2795V22.3173H25.0021V2.2795H24.4021ZM24.7021 22.6173H38.6366V22.0173H24.7021V22.6173ZM38.3366 22.3173V24.5224H38.9366V22.3173H38.3366ZM38.6366 24.2224H22.177V24.8224H38.6366V24.2224ZM107.782 24.5224V2.2795H107.182V24.5224H107.782ZM107.482 2.5795H110.007V1.9795H107.482V2.5795ZM109.707 2.2795V22.3173H110.307V2.2795H109.707ZM110.007 22.6173H123.941V22.0173H110.007V22.6173ZM123.641 22.3173V24.5224H124.241V22.3173H123.641ZM123.941 24.2224H107.482V24.8224H123.941V24.2224ZM43.4875 12.5544C43.4875 6.09183 48.3905 1.3 54.8657 1.3V0.7C48.0675 0.7 42.8875 5.75219 42.8875 12.5544H43.4875ZM54.8657 1.3C61.342 1.3 66.2439 6.02475 66.2439 12.5544H66.8439C66.8439 5.68279 61.6627 0.7 54.8657 0.7V1.3ZM64.353 12.5544C64.353 9.72967 63.3693 7.33375 61.6799 5.6433C59.9907 3.95302 57.614 2.98613 54.8614 2.98613V3.58613C57.4702 3.58613 59.6893 4.50018 61.2555 6.06743C62.8216 7.63451 63.753 9.87269 63.753 12.5544H64.353ZM54.8614 2.98613C52.109 2.98613 49.7251 3.9518 48.0285 5.64118C46.3316 7.33088 45.34 9.7269 45.34 12.5544H45.94C45.94 9.8712 46.8784 7.63311 48.4519 6.06635C50.0256 4.49927 52.2524 3.58613 54.8614 3.58613V2.98613ZM43.4875 24.4373C43.4875 17.9604 48.4047 12.7564 54.8657 12.7564V12.1564C48.0533 12.1564 42.8875 17.6495 42.8875 24.4373H43.4875ZM54.8657 12.7564C61.3278 12.7564 66.2439 17.8933 66.2439 24.4373H66.8439C66.8439 17.5801 61.677 12.1564 54.8657 12.1564V12.7564ZM64.353 24.4373C64.353 18.7837 60.4063 14.4426 54.8614 14.4426V15.0426C60.0393 15.0426 63.753 19.0783 63.753 24.4373H64.353ZM54.8614 14.4426C49.3179 14.4426 45.34 18.778 45.34 24.4373H45.94C45.94 19.0754 49.6822 15.0426 54.8614 15.0426V14.4426ZM72.4864 2.39646L77.0331 13.1276L77.5855 12.8936L73.0388 2.16239L72.4864 2.39646ZM77.029 13.1175C77.8466 15.2621 78.521 16.9283 79.1297 18.6226L79.6944 18.4198C79.0833 16.7191 78.4013 15.0328 77.5896 12.9037L77.029 13.1175ZM79.6944 18.6226C79.9958 17.7838 80.3314 16.9995 80.6964 16.1516C81.0607 15.3051 81.4535 14.3974 81.8634 13.3222L81.3028 13.1085C80.898 14.1701 80.5102 15.0665 80.1452 15.9144C79.7809 16.7608 79.4383 17.5611 79.1297 18.4198L79.6944 18.6226ZM81.8592 13.3327L86.5424 2.31145L85.9902 2.0768L81.307 13.098L81.8592 13.3327ZM86.2663 2.49412H86.3346V1.89412H86.2663V2.49412ZM86.0583 2.31114L90.7415 13.3665L91.294 13.1324L86.6108 2.07711L86.0583 2.31114ZM90.738 13.3578C91.1482 14.4165 91.55 15.3178 91.918 16.1591C92.2868 17.0023 92.6213 17.7843 92.9047 18.6178L93.4728 18.4246C93.1804 17.5648 92.8367 16.7623 92.4677 15.9186C92.0978 15.0731 91.702 14.1851 91.2975 13.1411L90.738 13.3578ZM93.4711 18.6226C93.7744 17.7786 94.1033 16.9392 94.4555 16.0401C94.8073 15.1419 95.1817 14.1856 95.5733 13.1135L95.0098 12.9077C94.6208 13.9724 94.2488 14.9227 93.8968 15.8212C93.5453 16.7188 93.2131 17.5663 92.9064 18.4198L93.4711 18.6226ZM95.5678 13.1276L100.114 2.39646L99.562 2.16239L95.0153 12.8936L95.5678 13.1276ZM99.8383 2.57943H102.619V1.97943H99.8383V2.57943ZM102.342 2.16478L92.9457 24.8854L93.5001 25.1147L102.896 2.39408L102.342 2.16478ZM93.2229 24.7H93.1547V25.3H93.2229V24.7ZM93.4333 24.8888L88.9889 13.7482L88.4316 13.9705L92.876 25.1112L93.4333 24.8888ZM88.9911 13.754C88.582 12.6636 88.1641 11.6532 87.7576 10.6541C87.3506 9.65344 86.9542 8.66236 86.5836 7.60153L86.0172 7.79939C86.3931 8.87541 86.7943 9.8783 87.2019 10.8802C87.6101 11.8835 88.0239 12.8842 88.4294 13.9648L88.9911 13.754ZM86.0172 7.60153C85.647 8.66135 85.2426 9.6514 84.8308 10.6531C84.4198 11.653 84.0012 12.6649 83.6083 13.7579L84.1729 13.9609C84.5604 12.8829 84.9736 11.8838 85.3858 10.8812C85.7972 9.88034 86.2074 8.87643 86.5836 7.79939L86.0172 7.60153ZM83.6119 13.7482L79.1676 24.8888L79.7248 25.1112L84.1692 13.9705L83.6119 13.7482ZM79.4462 24.7H79.378V25.3H79.4462V24.7ZM79.6552 24.8854L70.2589 2.16478L69.7044 2.39408L79.1007 25.1147L79.6552 24.8854ZM69.9817 2.57943H72.7626V1.97943H69.9817V2.57943ZM129.649 24.5224V2.2795H129.049V24.5224H129.649ZM129.349 2.5795H131.968V1.9795H129.349V2.5795ZM131.668 2.2795V24.5224H132.268V2.2795H131.668ZM131.968 24.2224H129.349V24.8224H131.968V24.2224ZM142.132 9.06377C141.885 8.78259 141.621 8.48557 141.421 8.21941L140.942 8.58059C141.159 8.8689 141.441 9.18607 141.681 9.45936L142.132 9.06377ZM140.881 8.4C140.881 8.74754 140.89 9.10423 140.898 9.46955C140.907 9.83602 140.915 10.2124 140.915 10.6051H141.515C141.515 10.2045 141.507 9.82165 141.498 9.45558C141.49 9.08835 141.481 8.73916 141.481 8.4H140.881ZM140.915 10.6051V24.5096H141.515V10.6051H140.915ZM141.215 24.2096H138.596V24.8096H141.215V24.2096ZM138.896 24.5096V1.85296H138.296V24.5096H138.896ZM138.596 2.15296H138.63V1.55296H138.596V2.15296ZM138.414 2.06087L154.946 19.258L155.379 18.8422L138.847 1.64505L138.414 2.06087ZM155.462 19.0451L155.428 17.0191L154.828 17.0292L154.863 19.0552L155.462 19.0451ZM155.428 17.0242V2.26668H154.828V17.0242H155.428ZM155.128 2.56668H157.747V1.96668H155.128V2.56668ZM157.447 2.26668V24.9233H158.047V2.26668H157.447ZM157.747 24.6233H157.713V25.2233H157.747V24.6233ZM157.924 24.7101L142.113 9.04843L141.691 9.4747L157.502 25.1364L157.924 24.7101ZM141.902 9.56157H141.906V8.96157H141.902V9.56157ZM163.831 24.6119V2.2795H163.231V24.6119H163.831ZM163.531 2.5795H179.986V1.9795H163.531V2.5795ZM179.686 2.2795V4.57842H180.286V2.2795H179.686ZM179.986 4.27842H166.261V4.87842H179.986V4.27842ZM165.961 4.57842V12.1363H166.561V4.57842H165.961ZM166.261 12.4363H180.042V11.8363H166.261V12.4363ZM179.742 12.1363V14.4694H180.342V12.1363H179.742ZM180.042 14.1694H166.261V14.7694H180.042V14.1694ZM165.961 14.4694V22.313H166.561V14.4694H165.961ZM166.261 22.613H180.524V22.013H166.261V22.613ZM180.224 22.313V24.6119H180.824V22.313H180.224ZM180.524 24.3119H163.531V24.9119H180.524V24.3119Z" fill="#FAF9F7" mask="url(#path-1-outside-1_2324_24)"/>
</svg>
