<svg width="256" height="92" viewBox="0 0 256 92" fill="none" xmlns="http://www.w3.org/2000/svg">
<path d="M0.304102 84.6893V84.8393H0.454102H58.0399H58.1899V84.6893V76.9606V76.8106H58.0399H9.43827V6.72936V6.57936H9.28827H0.454102H0.304102V6.72936V84.6893ZM76.8106 84.6893V84.8393H76.9606H86.123H86.273V84.6893V6.72936V6.57936H86.123H76.9606H76.8106V6.72936V84.6893ZM167.115 65.1298L109.54 5.13052L109.496 5.08437H109.432H109.312H109.162V5.23438V84.6444V84.7944H109.312H118.475H118.625V84.6444V35.9101C118.625 34.5179 118.595 33.1858 118.565 31.9021L118.562 31.7638C118.537 30.6859 118.513 29.6423 118.507 28.624C119.128 29.4161 119.866 30.2576 120.552 31.0408C120.555 31.0442 120.558 31.0477 120.561 31.0511H120.513L120.772 31.3076L176.089 86.201L176.133 86.2445H176.195H176.314H176.464V86.0945V6.68445V6.53445H176.314H167.152H167.002V6.68445L167.002 58.4086L167.002 58.4111L167.115 65.1298ZM196.399 85.0033V85.1533H196.549H256H256.15V85.0033V76.9456V76.7956H256H206.249V49.6041H254.314H254.464V49.4541V41.2769V41.1269H254.314H206.249V14.937H254.12H254.27V14.787V6.72936V6.57936H254.12H196.549H196.399V6.72936V85.0033Z" fill="#151515" stroke="#151515" stroke-width="0.3"/>
</svg>
