<svg width="340" height="92" viewBox="0 0 340 92" fill="none" xmlns="http://www.w3.org/2000/svg">
<mask id="path-1-outside-1_2716_615" maskUnits="userSpaceOnUse" x="-1" y="5.2793" width="338" height="81" fill="black">
<rect fill="white" x="-1" y="5.2793" width="338" height="81"/>
<path d="M8.65296 17.8136V44.9769H52.4819V52.276H8.65296V84.1406H0V10.5146H52.5241V17.8136H8.63894H8.65296Z"/>
<path d="M69.9717 84.1406V10.5146H78.3148V76.8415H124.356V84.1406H69.9717Z"/>
<path d="M139.393 44.5253C139.393 22.5716 156.051 6.2793 177.979 6.2793C199.908 6.2793 216.566 22.3457 216.566 44.5253M208.335 44.5253C208.335 26.2988 195.68 13.8466 177.965 13.8466C160.25 13.8466 147.496 26.2847 147.496 44.5253"/>
<path d="M139.393 83.8591C139.393 61.9054 156.051 44.2012 177.979 44.2012C199.908 44.2012 216.566 61.6795 216.566 83.8591M208.335 83.8591C208.335 65.6325 195.68 51.7685 177.965 51.7685C160.25 51.7685 147.496 65.6184 147.496 83.8591"/>
<path d="M237.113 10.5143L252.136 46.0355C254.828 53.1087 257.068 58.6572 259.084 64.2762C261.099 58.6572 263.565 53.7864 266.257 46.7132L281.731 10.232H281.957L297.431 46.8262C300.122 53.7864 302.701 58.6713 304.604 64.2762C306.619 58.6572 308.973 53.1087 311.552 46.0355L326.575 10.5143H335.763L304.716 85.7216H304.491L289.806 48.8451C287.114 41.6589 284.31 35.5317 281.844 28.4585C279.378 35.5317 276.46 41.6589 273.881 48.8451L259.197 85.7216H258.971L227.924 10.5143H237.113Z"/>
</mask>
<path d="M8.65296 17.8136V44.9769H52.4819V52.276H8.65296V84.1406H0V10.5146H52.5241V17.8136H8.63894H8.65296Z" fill="#151515"/>
<path d="M69.9717 84.1406V10.5146H78.3148V76.8415H124.356V84.1406H69.9717Z" fill="#151515"/>
<path d="M139.393 44.5253C139.393 22.5716 156.051 6.2793 177.979 6.2793C199.908 6.2793 216.566 22.3457 216.566 44.5253M208.335 44.5253C208.335 26.2988 195.68 13.8466 177.965 13.8466C160.25 13.8466 147.496 26.2847 147.496 44.5253" fill="#151515"/>
<path d="M139.393 83.8591C139.393 61.9054 156.051 44.2012 177.979 44.2012C199.908 44.2012 216.566 61.6795 216.566 83.8591M208.335 83.8591C208.335 65.6325 195.68 51.7685 177.965 51.7685C160.25 51.7685 147.496 65.6184 147.496 83.8591" fill="#151515"/>
<path d="M237.113 10.5143L252.136 46.0355C254.828 53.1087 257.068 58.6572 259.084 64.2762C261.099 58.6572 263.565 53.7864 266.257 46.7132L281.731 10.232H281.957L297.431 46.8262C300.122 53.7864 302.701 58.6713 304.604 64.2762C306.619 58.6572 308.973 53.1087 311.552 46.0355L326.575 10.5143H335.763L304.716 85.7216H304.491L289.806 48.8451C287.114 41.6589 284.31 35.5317 281.844 28.4585C279.378 35.5317 276.46 41.6589 273.881 48.8451L259.197 85.7216H258.971L227.924 10.5143H237.113Z" fill="#151515"/>
<path d="M8.65296 17.8136H8.95296V17.5136H8.65296V17.8136ZM8.65296 44.9769H8.35296V45.2769H8.65296V44.9769ZM52.4819 44.9769H52.7819V44.6769H52.4819V44.9769ZM52.4819 52.276V52.576H52.7819V52.276H52.4819ZM8.65296 52.276V51.976H8.35296V52.276H8.65296ZM8.65296 84.1406V84.4406H8.95296V84.1406H8.65296ZM0 84.1406H-0.3V84.4406H0V84.1406ZM0 10.5146V10.2146H-0.3V10.5146H0ZM52.5241 10.5146H52.8241V10.2146H52.5241V10.5146ZM52.5241 17.8136V18.1136H52.8241V17.8136H52.5241ZM69.9717 84.1406H69.6717V84.4406H69.9717V84.1406ZM69.9717 10.5146V10.2146H69.6717V10.5146H69.9717ZM78.3148 10.5146H78.6148V10.2146H78.3148V10.5146ZM78.3148 76.8415H78.0148V77.1415H78.3148V76.8415ZM124.356 76.8415H124.656V76.5415H124.356V76.8415ZM124.356 84.1406V84.4406H124.656V84.1406H124.356ZM237.113 10.5143L237.389 10.3975L237.312 10.2143H237.113V10.5143ZM252.136 46.0355L252.417 45.9288L252.412 45.9187L252.136 46.0355ZM259.084 64.2762L258.801 64.3774L259.084 65.1648L259.366 64.3774L259.084 64.2762ZM266.257 46.7132L265.981 46.596L265.977 46.6065L266.257 46.7132ZM281.731 10.232V9.93196H281.532L281.455 10.1148L281.731 10.232ZM281.957 10.232L282.233 10.1151L282.155 9.93196H281.957V10.232ZM297.431 46.8262L297.71 46.7179L297.707 46.7093L297.431 46.8262ZM304.604 64.2762L304.32 64.3726L304.596 65.1865L304.886 64.3774L304.604 64.2762ZM311.552 46.0355L311.275 45.9187L311.272 45.9257L311.27 45.9328L311.552 46.0355ZM326.575 10.5143V10.2143H326.376L326.298 10.3975L326.575 10.5143ZM335.763 10.5143L336.04 10.6288L336.212 10.2143H335.763V10.5143ZM304.716 85.7216V86.0216H304.917L304.994 85.8361L304.716 85.7216ZM304.491 85.7216L304.212 85.8326L304.288 86.0216H304.491V85.7216ZM289.806 48.8451L289.525 48.9503L289.527 48.956L289.806 48.8451ZM281.844 28.4585L282.127 28.3597L281.844 27.5473L281.561 28.3597L281.844 28.4585ZM273.881 48.8451L274.16 48.9561L274.164 48.9464L273.881 48.8451ZM259.197 85.7216V86.0216H259.4L259.475 85.8326L259.197 85.7216ZM258.971 85.7216L258.694 85.8361L258.77 86.0216H258.971V85.7216ZM227.924 10.5143V10.2143H227.476L227.647 10.6288L227.924 10.5143ZM8.35296 17.8136V44.9769H8.95296V17.8136H8.35296ZM8.65296 45.2769H52.4819V44.6769H8.65296V45.2769ZM52.1819 44.9769V52.276H52.7819V44.9769H52.1819ZM52.4819 51.976H8.65296V52.576H52.4819V51.976ZM8.35296 52.276V84.1406H8.95296V52.276H8.35296ZM8.65296 83.8406H0V84.4406H8.65296V83.8406ZM0.3 84.1406V10.5146H-0.3V84.1406H0.3ZM0 10.8146H52.5241V10.2146H0V10.8146ZM52.2241 10.5146V17.8136H52.8241V10.5146H52.2241ZM52.5241 17.5136H8.63894V18.1136H52.5241V17.5136ZM8.63894 18.1136H8.65296V17.5136H8.63894V18.1136ZM70.2717 84.1406V10.5146H69.6717V84.1406H70.2717ZM69.9717 10.8146H78.3148V10.2146H69.9717V10.8146ZM78.0148 10.5146V76.8415H78.6148V10.5146H78.0148ZM78.3148 77.1415H124.356V76.5415H78.3148V77.1415ZM124.056 76.8415V84.1406H124.656V76.8415H124.056ZM124.356 83.8406H69.9717V84.4406H124.356V83.8406ZM139.693 44.5253C139.693 22.7409 156.213 6.5793 177.979 6.5793V5.9793C155.889 5.9793 139.093 22.4023 139.093 44.5253H139.693ZM177.979 6.5793C199.747 6.5793 216.266 22.5162 216.266 44.5253H216.866C216.866 22.1753 200.069 5.9793 177.979 5.9793V6.5793ZM208.635 44.5253C208.635 35.3407 205.445 27.5922 200.006 22.1392C194.566 16.6862 186.895 13.5466 177.965 13.5466V14.1466C186.75 14.1466 194.264 17.2331 199.581 22.5629C204.898 27.8925 208.035 35.4834 208.035 44.5253H208.635ZM177.965 13.5466C169.036 13.5466 161.34 16.6825 155.876 22.1333C150.411 27.5844 147.196 35.333 147.196 44.5253H147.796C147.796 35.477 150.958 27.8862 156.3 22.5581C161.641 17.2298 169.18 14.1466 177.965 14.1466V13.5466ZM139.693 83.8591C139.693 62.0603 156.227 44.5012 177.979 44.5012V43.9012C155.875 43.9012 139.093 61.7504 139.093 83.8591H139.693ZM177.979 44.5012C199.733 44.5012 216.266 61.8356 216.266 83.8591H216.866C216.866 61.5234 200.083 43.9012 177.979 43.9012V44.5012ZM208.635 83.8591C208.635 65.4858 195.864 51.4685 177.965 51.4685V52.0685C195.496 52.0685 208.035 65.7793 208.035 83.8591H208.635ZM177.965 51.4685C160.068 51.4685 147.196 65.4702 147.196 83.8591H147.796C147.796 65.7666 160.433 52.0685 177.965 52.0685V51.4685ZM236.837 10.6312L251.86 46.1524L252.412 45.9187L237.389 10.3975L236.837 10.6312ZM251.856 46.1422C254.55 53.2232 256.787 58.7616 258.801 64.3774L259.366 64.1749C257.35 58.5527 255.105 52.9942 252.416 45.9288L251.856 46.1422ZM259.366 64.3774C260.37 61.5778 261.487 58.9634 262.692 56.1584C263.897 53.3549 265.189 50.3633 266.537 46.8199L265.977 46.6065C264.633 50.1363 263.346 53.1167 262.141 55.9216C260.936 58.7251 259.813 61.3555 258.801 64.1749L259.366 64.3774ZM266.533 46.8304L282.007 10.3491L281.455 10.1148L265.981 46.5961L266.533 46.8304ZM281.731 10.532H281.957V9.93196H281.731V10.532ZM281.68 10.3488L297.154 46.943L297.707 46.7093L282.233 10.1151L281.68 10.3488ZM297.151 46.9344C298.499 50.4218 299.82 53.3898 301.038 56.1795C302.257 58.9711 303.373 61.5833 304.32 64.3726L304.888 64.1797C303.932 61.3641 302.807 58.7315 301.588 55.9394C300.368 53.1454 299.053 50.1908 297.71 46.7179L297.151 46.9344ZM304.886 64.3774C305.892 61.5727 306.983 58.7848 308.146 55.8104C309.308 52.837 310.543 49.6786 311.833 46.1383L311.27 45.9328C309.982 49.4657 308.75 52.6181 307.587 55.5919C306.425 58.5648 305.331 61.3607 304.321 64.1749L304.886 64.3774ZM311.828 46.1524L326.851 10.6312L326.298 10.3975L311.275 45.9187L311.828 46.1524ZM326.575 10.8143H335.763V10.2143H326.575V10.8143ZM335.486 10.3999L304.439 85.6071L304.994 85.8361L336.04 10.6288L335.486 10.3999ZM304.716 85.4216H304.491V86.0216H304.716V85.4216ZM304.77 85.6106L290.085 48.7341L289.527 48.956L304.212 85.8326L304.77 85.6106ZM290.087 48.7398C288.739 45.1419 287.363 41.8087 286.018 38.4965C284.673 35.1829 283.358 31.8887 282.127 28.3597L281.561 28.5572C282.796 32.1014 284.116 35.4074 285.462 38.7223C286.809 42.0386 288.181 45.3621 289.525 48.9503L290.087 48.7398ZM281.561 28.3597C280.33 31.8877 278.987 35.1809 277.627 38.4955C276.268 41.8084 274.891 45.1432 273.599 48.7437L274.164 48.9464C275.45 45.3608 276.822 42.0389 278.182 38.7233C279.542 35.4095 280.891 32.1024 282.127 28.5572L281.561 28.3597ZM273.603 48.7341L258.918 85.6106L259.475 85.8326L274.16 48.956L273.603 48.7341ZM259.197 85.4216H258.971V86.0216H259.197V85.4216ZM259.248 85.6071L228.202 10.3999L227.647 10.6288L258.694 85.8361L259.248 85.6071ZM227.924 10.8143H237.113V10.2143H227.924V10.8143Z" fill="#151515" mask="url(#path-1-outside-1_2716_615)"/>
</svg>
